<svg xmlns="http://www.w3.org/2000/svg" xmlns:xlink="http://www.w3.org/1999/xlink" width="300.68" height="360.548" viewBox="0 0 300.68 360.548">
  <defs>
    <linearGradient id="linear-gradient" y1="0.5" x2="1" y2="0.5" gradientUnits="objectBoundingBox">
      <stop offset="0" stop-color="#fff"/>
      <stop offset="1"/>
    </linearGradient>
  </defs>
  <g id="Group_999" data-name="Group 999" transform="translate(-30.094 -131)">
    <g id="Group_998" data-name="Group 998">
      <g id="Group_997" data-name="Group 997">
        <g id="Group_603" data-name="Group 603" transform="translate(18.434 -53.358)">
          <g id="Group_602" data-name="Group 602">
            <g id="Group_597" data-name="Group 597" transform="translate(-2660.816 -67.247)">
              <path id="Path_935" data-name="Path 935" d="M422.123,73.755,257.566,141.193l.38,49.2L443.3,120.332V96.423A22.821,22.821,0,0,0,422.123,73.755Z" transform="translate(2524.596 183.152)" fill="#fff" opacity="0.6"/>
              <path id="Rectangle_331" data-name="Rectangle 331" d="M30.251,0H166.428a30.251,30.251,0,0,1,30.251,30.251V330.3a30.252,30.252,0,0,1-30.252,30.252H30.251A30.251,30.251,0,0,1,0,330.3V30.251A30.251,30.251,0,0,1,30.251,0Z" transform="translate(2776.476 251.605)" fill="#fff"/>
              <path id="Path_1008" data-name="Path 1008" d="M24.592,0H161.559a24.519,24.519,0,0,1,24.592,24.445V325.636a24.519,24.519,0,0,1-24.592,24.445H24.592A24.519,24.519,0,0,1,0,325.636V24.445A24.519,24.519,0,0,1,24.592,0Z" transform="translate(2781.74 256.838)" fill="#f89f9f"/>
              <path id="Path_906" data-name="Path 906" d="M370.655,422.5H339.263a7.065,7.065,0,0,0,0,14.117h31.393a7.065,7.065,0,0,0,0-14.117Z" transform="translate(2519.362 156.856)" fill="#6770a7"/>
              <path id="Path_907" data-name="Path 907" d="M370.879,422.5h-30.7a6.566,6.566,0,1,0,0,13.132h30.7a6.566,6.566,0,1,0,0-13.132Z" transform="translate(2519.287 156.856)" fill="#fff"/>
              <path id="Path_932" data-name="Path 932" d="M443.327,401.024V96.418A22.832,22.832,0,0,0,420.453,73.68H280.05a22.889,22.889,0,0,0-22.028,16.626c22.485-4.28,75.407,4.507,108.2,17.523,42.174,16.737,47.373,21.432,63.3,111.312,11.249,63.47,13.51,185.487-2.639,203.7A22.794,22.794,0,0,0,443.327,401.024Z" transform="translate(2524.565 183.158)" fill="none"/>
              <path id="Path_933" data-name="Path 933" d="M420.821,73.68h-140.4A22.877,22.877,0,0,0,263.3,81.365a22.854,22.854,0,0,1,15.142-5.716h140.4a22.832,22.832,0,0,1,22.874,22.738V402.994a22.563,22.563,0,0,1-5.75,15.052,22.628,22.628,0,0,0,7.731-17.021V96.418A22.832,22.832,0,0,0,420.821,73.68Z" transform="translate(2524.196 183.158)" fill="#fff"/>
              <path id="Path_934" data-name="Path 934" d="M280.977,424.5A22.831,22.831,0,0,1,258.1,401.763V245.027l-.926-148.5c-.038.533-.064,1.07-.064,1.613V402.747a22.831,22.831,0,0,0,22.874,22.737h140.4a22.938,22.938,0,0,0,3.569-.278Z" transform="translate(2524.628 181.435)" fill="#172f5b"/>
            </g>
          </g>
        </g>
        <rect id="Rectangle_118" data-name="Rectangle 118" width="44.255" height="10.853" rx="1.354" transform="translate(209.872 147.939)" fill="#fff"/>
        <rect id="Rectangle_119" data-name="Rectangle 119" width="89.239" height="10.853" rx="1.354" transform="translate(187.381 164.242)" fill="#fff"/>
      </g>
      <g id="Group_994" data-name="Group 994">
        <g id="Group_462" data-name="Group 462" transform="translate(149.775 266.029)">
          <rect id="Rectangle_141" data-name="Rectangle 141" width="118" height="69" rx="9" transform="translate(0 -0.215)" fill="#fff"/>
          <rect id="Rectangle_142" data-name="Rectangle 142" width="118" height="12" transform="translate(0 11.785)" fill="#e3e3e3"/>
          <ellipse id="Ellipse_11" data-name="Ellipse 11" cx="10.5" cy="11" rx="10.5" ry="11" transform="translate(13 36.785)" fill="#d61229"/>
          <ellipse id="Ellipse_12" data-name="Ellipse 12" cx="10.5" cy="11" rx="10.5" ry="11" transform="translate(24 36.785)" fill="#fab708"/>
        </g>
        <g id="Group_463" data-name="Group 463" transform="translate(169.427 227.816)">
          <rect id="Rectangle_143" data-name="Rectangle 143" width="130" height="76" rx="13" transform="translate(0.347 -0.002)" fill="#fab708"/>
          <rect id="Rectangle_144" data-name="Rectangle 144" width="35" height="16" transform="translate(88.347 53.998)" fill="#fff"/>
          <rect id="Rectangle_146" data-name="Rectangle 146" width="73" height="5" transform="translate(16.347 18.998)" fill="#fff"/>
          <rect id="Rectangle_147" data-name="Rectangle 147" width="49" height="5" transform="translate(28.347 27.998)" fill="#fff"/>
          <rect id="Rectangle_145" data-name="Rectangle 145" width="12" height="3" transform="translate(90.347 56.998)" fill="#fab708"/>
        </g>
      </g>
    </g>
    <g id="Group_598" data-name="Group 598" transform="translate(-2641.934 -278.009)">
      <path id="Path_970" data-name="Path 970" d="M266.117,236.7a.612.612,0,0,1,.359-.38.806.806,0,0,1,.575-.017l7.428,2.628a.561.561,0,0,1,.4.7l-5.181,15.279a.615.615,0,0,1-.35.36.8.8,0,0,1-.4.057.721.721,0,0,1-.145-.031l-6.892-2.149a.571.571,0,0,1-.43-.688Z" transform="translate(2523.806 344.945)" fill="#172f5b"/>
      <path id="Path_971" data-name="Path 971" d="M232.14,470.888c-3.374-.375-11.772-1.363-9.231-1.659,2.235-.259,6.436-.468,8.7-.568a8.088,8.088,0,0,0-.478-1.3c-1.128-.012-14.288.357-15.44.373-8.688.126-28.963,2.064-28.963,4.84s18.626,3.953,31.483,4.582a129.04,129.04,0,0,0,17.429-.038C233.266,475.384,232.621,473.058,232.14,470.888Z" transform="translate(2530.375 292.125)" opacity="0.25" fill="url(#linear-gradient)" style="mix-blend-mode: multiply;isolation: isolate"/>
      <path id="Path_972" data-name="Path 972" d="M173.117,474.238c-3.373-.375-2.742-.814-.2-1.109,2.235-.259,6.436-.468,8.7-.569a8.146,8.146,0,0,0-.479-1.3c-1.127-.012-6.83-.561-7.983-.56-2.659,0-35.853.09-35.853,2.867S162.273,476.863,173.117,474.238Z" transform="translate(2534.721 291.362)" opacity="0.25" fill="url(#linear-gradient)" style="mix-blend-mode: multiply;isolation: isolate"/>
      <path id="Path_973" data-name="Path 973" d="M176.449,460.847c-2.671,2.831-5.666,6.641-14.124,9.55-2.124,1.8,3.047,1.437,6.258,1.335s9.16-1.437,10.374-2.361,2.064-6.367,2.793-6.982c.607,4.415.728,6.675.728,6.675l1.214-.1s.607-6.058,1.093-8.009a6.27,6.27,0,0,0-.97-5.339C182.721,454.173,180.969,456.054,176.449,460.847Z" transform="translate(2532.565 294.919)" fill="#222221"/>
      <path id="Path_974" data-name="Path 974" d="M186.721,402.476s-2.553,17.114-3.142,21.221a131.281,131.281,0,0,1-3.881,17.114c-1.925,6.914-7.158,9.614-6.418,10.834,1.457,2.129,4.431-1.567,6.435-3.407a20.647,20.647,0,0,1,5.043-3.594c1.375-.684.785-3.423.785-3.423s4.124-12.048,5.5-14.923,10.409-15.2,8.052-22.453c2.357-8.626,2.554-10.542,2.554-10.542S189.275,391.8,186.721,402.476Z" transform="translate(2531.564 309.068)" fill="#ff9489"/>
      <path id="Path_975" data-name="Path 975" d="M200.029,398.118l-1.653-4.788c-3.853.338-9.948,2.028-11.655,9.169,0,0-2.553,17.114-3.142,21.221a131.276,131.276,0,0,1-3.881,17.114c-1.925,6.914-7.158,9.614-6.418,10.834,1.224,1.789,3.516-.532,5.407-2.411.52-2.428,2.362-5.584,2.792-6.679.711-1.816,4.63-27.21,6.734-32.823S200.029,398.118,200.029,398.118Z" transform="translate(2531.564 309.045)" fill="#ff9489" style="mix-blend-mode: multiply;isolation: isolate"/>
      <path id="Path_976" data-name="Path 976" d="M235.591,458.476s-6.755,6.449,3.03,15.578c1.057.741,1.237.874,2.871-2.293,2.5-4.838.1-14.168-1.731-15.707S235.591,458.476,235.591,458.476Z" transform="translate(2526.279 294.791)" fill="#222221"/>
      <path id="Path_977" data-name="Path 977" d="M229.477,394.271s-2,5.659-.9,8.322,6.141,34.579,6.067,38.573c-1.509,4.244-.259,11.158,3.185,11.436s4.331-7.079,2.45-12.018c-.431-10.966-.513-24.985.043-30.254s.975-13.277-.866-16.707-6.268-5.281-6.268-5.281S229.222,393.192,229.477,394.271Z" transform="translate(2526.725 310.185)" fill="#ff9489"/>
      <path id="Path_978" data-name="Path 978" d="M228.58,402.593c1.106,2.662,6.141,34.579,6.067,38.573-1.509,4.244-.259,11.158,3.185,11.436a2.1,2.1,0,0,0,1.178-.238c-4.164-2.486-3.024-9.48-3.514-12.059-.612-3.222-4.082-31.963-4.243-36.48S238.7,392.87,238.7,392.87l-.038-.461a15.466,15.466,0,0,0-5.47-4.068s-3.968,4.85-3.713,5.93C229.477,394.271,227.474,399.93,228.58,402.593Z" transform="translate(2526.725 310.185)" fill="#ff9489" style="mix-blend-mode: multiply;isolation: isolate"/>
      <path id="Path_979" data-name="Path 979" d="M203.157,275.53c-8.715.062-14.039-8.271-16.063-14.389-2.266-6.845.249-13.564,5.18-19.192s2.172-10.131,3.8-17.8,6.729-11.177,13.252-11.51a15.653,15.653,0,0,1,15.6,13.345c1.184,8.508,3.557,12.079,7.895,16.928C238.495,249.25,247.025,275.218,203.157,275.53Z" transform="translate(2530.417 350.347)" fill="#202336"/>
      <path id="Path_980" data-name="Path 980" d="M197.83,320.339s-9.683,38.177-10.655,64.19c22.338-3.012,49.046-7.393,49.046-7.393s1.447-18.209,1.332-31.763c-.036-4.279-.685-27.793-4.651-30.668C223.109,316.485,197.83,320.339,197.83,320.339Z" transform="translate(2530.337 327.015)" fill="#172f5b"/>
      <path id="Path_981" data-name="Path 981" d="M229.974,378.741c6.086-.961,10.01-1.6,10.01-1.6s1.447-18.209,1.332-31.763c-.036-4.279-.685-27.793-4.651-30.668l-1.255.225c1.246,6.05,4.542,25.4,2.145,51.527A20.24,20.24,0,0,1,229.974,378.741Z" transform="translate(2526.573 327.015)" fill="#b0aed4" opacity="0.4"/>
      <path id="Path_982" data-name="Path 982" d="M205.466,357.406c4.208-13.518,14.082-37.276,23.309-40.425l-2.939-.7c-11.5,1.9-28.006,4.421-28.006,4.421s-9.683,38.177-10.655,64.19c10.242-1.381,21.4-3.049,30.481-4.451C212.012,376.119,202.446,367.106,205.466,357.406Z" transform="translate(2530.337 326.656)" fill="#172f5b" opacity="0.4" style="mix-blend-mode: multiply;isolation: isolate"/>
      <path id="Path_983" data-name="Path 983" d="M243.623,267.516s5.462,7.393,7.041,10.371c3.714-4.7,9.833-16.326,11.168-17.969-.121-2.773,0-5.339,0-5.339s-2.428-4.21-2.307-5.134,3.885,3.593,3.885,3.593-1.821-5.956-.971-6.88,3.763,6.161,3.763,6.161-.85-8.728,0-9.139,2.671,8.523,2.913,12.014-4.491,6.675-4.613,7.291c-2.549,7.906-9.469,22.487-12.99,26.7-1.578,1.848-14.2-16.943-14.2-16.943S238.646,269.159,243.623,267.516Z" transform="translate(2525.928 343.365)" fill="#ff9489"/>
      <path id="Path_984" data-name="Path 984" d="M242.079,275.516c-3.712,1.695-4.769,4.117-4.769,4.117s10.368,15.429,13.488,16.95C246.7,291.565,242.907,280.091,242.079,275.516Z" transform="translate(2525.928 335.972)" fill="#ff9489" style="mix-blend-mode: multiply;isolation: isolate"/>
      <path id="Path_985" data-name="Path 985" d="M184.384,283.886a10.939,10.939,0,0,0-6.637-6.982c-6.8,8.078-12.787,18.465-13.111,20.116s27.68,13.564,27.68,13.564-1.7,4.723-1.7,6.229.89,9.378,1.7,10.063,1.862-7.12,1.862-7.12,1.214,3.08,2.347,3.218-1.395-8.341-1.395-8.341a23.447,23.447,0,0,0,1.395-6.1c0-2.327-20.233-13.554-21.2-14.1C178.881,290.184,184.384,283.886,184.384,283.886Z" transform="translate(2532.318 335.655)" fill="#ff9489"/>
      <path id="Path_986" data-name="Path 986" d="M194.136,309.934s-14.082-6.777-27.072-13.862c5.2-10.685,12.63-15.951,15.47-15.664a11.429,11.429,0,0,0-4.787-3.5c-6.8,8.078-12.787,18.465-13.111,20.116s27.68,13.564,27.68,13.564-1.7,4.723-1.7,6.229.89,9.378,1.7,10.063,1.862-7.12,1.862-7.12-1.74-2.84-1.862-4.176S194.136,309.934,194.136,309.934Z" transform="translate(2532.318 335.655)" fill="#ff9489" style="mix-blend-mode: multiply;isolation: isolate"/>
      <path id="Path_987" data-name="Path 987" d="M200.135,257.516s-10.926,3.149-12.059,3.7-9.065,10.816-9.065,10.816a19.9,19.9,0,0,1,6.637,6.982c3.885-4.107,5.826-6.3,5.826-6.3s6.313,14.239,8.66,18.483c-1.7,8.625-1.923,11.41-2.848,15.655,10.873,1.76,29.638-2.649,34.9-5.661-2.347-7.256-4.775-12.6-4.613-14.649s1.457-15.471,1.457-15.471l3.156,4s2.672-3.8,6.313-4.724c-2.024-6.811-6.717-12.835-7.365-14.2s-13.88.137-13.88.137Z" transform="translate(2531.054 340.53)" fill="#6770a7"/>
      <path id="Path_988" data-name="Path 988" d="M237.23,272.654a10.225,10.225,0,0,1,4.078-2.3c-2.024-6.811-6.717-12.835-7.365-14.2s-13.88.137-13.88.137l-9.092.654,1.2,12.181s7.526-4.724,10.2-11.706a36.558,36.558,0,0,1,9.469,0s6.777,8.3,5.391,15.241Z" transform="translate(2528.244 340.53)" fill="#d3d0fa"/>
      <path id="Path_989" data-name="Path 989" d="M208.241,245.98s1.093,5.647-.971,7.29c-3.52,1.54-5.1,2.054-5.1,2.054a45.2,45.2,0,0,0,9.227,11.6,28.265,28.265,0,0,0,7.891-12.835,17.364,17.364,0,0,1-4.613-.411c-1.335-.513-.486-7.7-.486-7.7Z" transform="translate(2529.018 342.722)" fill="#ff9489"/>
      <path id="Path_990" data-name="Path 990" d="M210.815,253.681a6.534,6.534,0,0,1,3.2-5.73c.078-1.126.176-1.971.176-1.971h-5.949s1.093,5.647-.971,7.29c-3.52,1.54-5.1,2.054-5.1,2.054a45.2,45.2,0,0,0,9.227,11.6c.31-.278.6-.564.889-.851C203.6,256.506,207.028,256.452,210.815,253.681Z" transform="translate(2529.018 342.722)" fill="#ff9489" style="mix-blend-mode: multiply;isolation: isolate"/>
      <path id="Path_991" data-name="Path 991" d="M202.116,227.861s.648,4.655.809,5.613c-1.78-1.369-2.913-.137-1.942,1.369a28.516,28.516,0,0,0,3.237,3.7s3.561,6.3,7.608,6.3,7.77-4.381,8.9-15.881a21.465,21.465,0,0,1-5.018-3.7s-3.885,3.97-7.445,1.506S201.736,225.161,202.116,227.861Z" transform="translate(2529.154 347.458)" fill="#ff9489"/>
      <path id="Path_992" data-name="Path 992" d="M263.607,264.839c.849-1.335-.486-6.88-.486-6.88s-.121,2.567,0,5.339c-1.335,1.643-7.454,13.267-11.168,17.969l1.093,1.746S262.757,266.173,263.607,264.839Z" transform="translate(2524.641 339.984)" fill="#ff9489" style="mix-blend-mode: multiply;isolation: isolate"/>
      <path id="Path_993" data-name="Path 993" d="M173.687,296.6s18.774,9.745,23.592,14.727c.024-.252.041-.5.041-.727,0-2.327-20.234-13.554-21.2-14.1,3.562-4.244,9.065-10.542,9.065-10.542Z" transform="translate(2531.522 333.586)" fill="#ffd4d2"/>
      <path id="Path_994" data-name="Path 994" d="M270.486,255.246c-.217-3.128-1.7-10.623-2.619-11.851.738,3.328,2.136,10.24,1.405,11.851-.97,2.143-.607,2.978-4.006,6.572-1.457,5.853-12.383,27.417-12.383,27.417,3.521-4.211,10.441-18.791,12.99-26.7C265.995,261.921,270.73,258.738,270.486,255.246Z" transform="translate(2524.559 343.313)" fill="#ffd4d2"/>
      <path id="Path_995" data-name="Path 995" d="M216.689,241.95a5.565,5.565,0,0,1-6.8,2.692,5.253,5.253,0,0,0,2.754.9c4.047,0,7.77-4.381,8.9-15.882a19.015,19.015,0,0,1-2.157-1.314C219.4,235.1,217.967,239.872,216.689,241.95Z" transform="translate(2528.34 346.752)" fill="#ffd4d2"/>
      <path id="Path_996" data-name="Path 996" d="M205.291,291.482c-1.821-2.669-9.712-22.9-9.671-24.335s4.815-5.648,7.486-6.469l2.255-1.335-3.1-.719s-10.2,2.67-12.868,4.724c-1.688,1.3-5.653,6.818-8.345,10.707a21.675,21.675,0,0,1,4.784,5.654c3.885-4.107,5.826-6.3,5.826-6.3s6.313,14.239,8.66,18.483c-1.7,8.625-1.923,11.41-2.848,15.655,5.692.921,13.547.15,20.5-1.224C206.267,304.683,206.87,293.8,205.291,291.482Z" transform="translate(2530.876 339.833)" fill="#6770a7" opacity="0.3" style="mix-blend-mode: multiply;isolation: isolate"/>
      <path id="Path_997" data-name="Path 997" d="M232.962,275.662,229.2,291.783s3.156,9.858,3.763,11.5-1.681,3.475-9.209,6.509c5.462-1.2,10.132-2.733,12.365-4.011-2.347-7.256-4.775-12.6-4.613-14.649S232.962,275.662,232.962,275.662Z" transform="translate(2527.121 335.938)" fill="#b0aed4"/>
    </g>
  </g>
</svg>
