<svg xmlns="http://www.w3.org/2000/svg" xmlns:xlink="http://www.w3.org/1999/xlink" width="274.528" height="360.548" viewBox="0 0 274.528 360.548">
  <defs>
    <linearGradient id="linear-gradient" x1="-8.823" y1="-0.547" x2="-8.271" y2="0.53" gradientUnits="objectBoundingBox">
      <stop offset="0" stop-color="#febbba"/>
      <stop offset="1" stop-color="#ff928e"/>
    </linearGradient>
    <linearGradient id="linear-gradient-2" x1="-21.731" y1="1.602" x2="-20.697" y2="-1.187" xlink:href="#linear-gradient"/>
    <linearGradient id="linear-gradient-3" x1="-7.551" y1="1.698" x2="-7.088" y2="-1.193" xlink:href="#linear-gradient"/>
    <linearGradient id="linear-gradient-4" x1="-29.039" y1="1.857" x2="-28.785" y2="0.807" xlink:href="#linear-gradient"/>
    <linearGradient id="linear-gradient-5" x1="-20.845" y1="-0.375" x2="-19.312" y2="-2.629" xlink:href="#linear-gradient"/>
    <linearGradient id="linear-gradient-6" x1="-77.34" y1="-1.951" x2="-71.547" y2="-9.092" xlink:href="#linear-gradient"/>
    <linearGradient id="linear-gradient-7" x1="-28.334" y1="-0.785" x2="-26.744" y2="2.222" xlink:href="#linear-gradient"/>
    <linearGradient id="linear-gradient-8" x1="0" y1="0.5" x2="1" y2="0.5" xlink:href="#linear-gradient"/>
    <linearGradient id="linear-gradient-9" x1="-0.799" y1="1.009" x2="1.025" y2="0.359" xlink:href="#linear-gradient"/>
  </defs>
  <g id="Group_996" data-name="Group 996" transform="translate(-51.17 -131.358)">
    <g id="Group_603" data-name="Group 603" transform="translate(13.358 -53)">
      <g id="Group_602" data-name="Group 602">
        <g id="Group_597" data-name="Group 597" transform="translate(-2660.816 -67.247)">
          <path id="Path_935" data-name="Path 935" d="M422.123,73.755,257.566,141.193l.38,49.2L443.3,120.332V96.423A22.821,22.821,0,0,0,422.123,73.755Z" transform="translate(2524.596 183.152)" fill="#fff" opacity="0.6"/>
          <path id="Rectangle_331" data-name="Rectangle 331" d="M30.251,0H166.428a30.251,30.251,0,0,1,30.251,30.251V330.3a30.252,30.252,0,0,1-30.252,30.252H30.251A30.251,30.251,0,0,1,0,330.3V30.251A30.251,30.251,0,0,1,30.251,0Z" transform="translate(2776.476 251.605)" fill="#fff"/>
          <path id="Path_1008" data-name="Path 1008" d="M24.592,0H161.559a24.519,24.519,0,0,1,24.592,24.445V325.636a24.519,24.519,0,0,1-24.592,24.445H24.592A24.519,24.519,0,0,1,0,325.636V24.445A24.519,24.519,0,0,1,24.592,0Z" transform="translate(2781.74 256.838)" fill="#f89f9f"/>
          <path id="Path_906" data-name="Path 906" d="M370.655,422.5H339.263a7.065,7.065,0,0,0,0,14.117h31.393a7.065,7.065,0,0,0,0-14.117Z" transform="translate(2519.362 156.856)" fill="#6770a7"/>
          <path id="Path_907" data-name="Path 907" d="M370.879,422.5h-30.7a6.566,6.566,0,1,0,0,13.132h30.7a6.566,6.566,0,1,0,0-13.132Z" transform="translate(2519.287 156.856)" fill="#fff"/>
          <path id="Path_932" data-name="Path 932" d="M443.327,401.024V96.418A22.832,22.832,0,0,0,420.453,73.68H280.05a22.889,22.889,0,0,0-22.028,16.626c22.485-4.28,75.407,4.507,108.2,17.523,42.174,16.737,47.373,21.432,63.3,111.312,11.249,63.47,13.51,185.487-2.639,203.7A22.794,22.794,0,0,0,443.327,401.024Z" transform="translate(2524.565 183.158)" fill="none"/>
          <path id="Path_933" data-name="Path 933" d="M420.821,73.68h-140.4A22.877,22.877,0,0,0,263.3,81.365a22.854,22.854,0,0,1,15.142-5.716h140.4a22.832,22.832,0,0,1,22.874,22.738V402.994a22.563,22.563,0,0,1-5.75,15.052,22.628,22.628,0,0,0,7.731-17.021V96.418A22.832,22.832,0,0,0,420.821,73.68Z" transform="translate(2524.196 183.158)" fill="#fff"/>
          <path id="Path_934" data-name="Path 934" d="M280.977,424.5A22.831,22.831,0,0,1,258.1,401.763V245.027l-.926-148.5c-.038.533-.064,1.07-.064,1.613V402.747a22.831,22.831,0,0,0,22.874,22.737h140.4a22.938,22.938,0,0,0,3.569-.278Z" transform="translate(2524.628 181.435)" fill="#172f5b"/>
        </g>
      </g>
      <g id="Group_600" data-name="Group 600" transform="translate(27.056 25.357)">
        <rect id="Rectangle_120" data-name="Rectangle 120" width="130.614" height="34.845" rx="4" transform="translate(120.165 240.77)" fill="#fff"/>
        <rect id="Rectangle_122" data-name="Rectangle 122" width="13.95" height="13.564" rx="4" transform="translate(125.324 244.629)" fill="#d61229" opacity="0.3"/>
        <rect id="Rectangle_123" data-name="Rectangle 123" width="97.142" height="6.782" rx="3.391" transform="translate(146.606 248.02)" fill="#9d9d9d" opacity="0.2"/>
        <rect id="Rectangle_124" data-name="Rectangle 124" width="97.142" height="6.782" rx="3.391" transform="translate(146.606 260.918)" fill="#9d9d9d" opacity="0.2"/>
      </g>
      <g id="Group_600-2" data-name="Group 600" transform="translate(27.056 65.357)">
        <rect id="Rectangle_120-2" data-name="Rectangle 120" width="130.614" height="34.845" rx="4" transform="translate(120.165 240.77)" fill="#fff"/>
        <rect id="Rectangle_122-2" data-name="Rectangle 122" width="13.95" height="13.564" rx="4" transform="translate(125.324 244.629)" fill="#d61229"/>
        <rect id="Rectangle_123-2" data-name="Rectangle 123" width="97.142" height="6.782" rx="3.391" transform="translate(146.606 248.02)" fill="#fab708"/>
        <rect id="Rectangle_124-2" data-name="Rectangle 124" width="97.142" height="6.782" rx="3.391" transform="translate(146.606 260.918)" fill="#fab708"/>
      </g>
      <g id="Group_600-3" data-name="Group 600" transform="translate(27.056 105.357)">
        <rect id="Rectangle_120-3" data-name="Rectangle 120" width="130.614" height="34.845" rx="4" transform="translate(120.165 240.77)" fill="#fff"/>
        <rect id="Rectangle_122-3" data-name="Rectangle 122" width="13.95" height="13.564" rx="4" transform="translate(125.324 244.629)" fill="#d61229" opacity="0.3"/>
        <rect id="Rectangle_123-3" data-name="Rectangle 123" width="97.142" height="6.782" rx="3.391" transform="translate(146.606 248.02)" fill="#9d9d9d" opacity="0.2"/>
        <rect id="Rectangle_124-3" data-name="Rectangle 124" width="97.142" height="6.782" rx="3.391" transform="translate(146.606 260.918)" fill="#9d9d9d" opacity="0.2"/>
      </g>
      <g id="Group_600-4" data-name="Group 600" transform="translate(27.056 145.357)">
        <rect id="Rectangle_120-4" data-name="Rectangle 120" width="130.614" height="34.845" rx="4" transform="translate(120.165 240.77)" fill="#fff"/>
        <rect id="Rectangle_122-4" data-name="Rectangle 122" width="13.95" height="13.564" rx="4" transform="translate(125.324 244.629)" fill="#d61229" opacity="0.3"/>
        <rect id="Rectangle_123-4" data-name="Rectangle 123" width="97.142" height="6.782" rx="3.391" transform="translate(146.606 248.02)" fill="#9d9d9d" opacity="0.2"/>
        <rect id="Rectangle_124-4" data-name="Rectangle 124" width="97.142" height="6.782" rx="3.391" transform="translate(146.606 260.918)" fill="#9d9d9d" opacity="0.2"/>
      </g>
      <g id="Group_600-5" data-name="Group 600" transform="translate(27.056 185.357)">
        <rect id="Rectangle_120-5" data-name="Rectangle 120" width="130.614" height="34.845" rx="4" transform="translate(120.165 240.77)" fill="#fff"/>
        <rect id="Rectangle_122-5" data-name="Rectangle 122" width="13.95" height="13.564" rx="4" transform="translate(125.324 244.629)" fill="#d61229" opacity="0.3"/>
        <rect id="Rectangle_123-5" data-name="Rectangle 123" width="97.142" height="6.782" rx="3.391" transform="translate(146.606 248.02)" fill="#9d9d9d" opacity="0.2"/>
        <rect id="Rectangle_124-5" data-name="Rectangle 124" width="97.142" height="6.782" rx="3.391" transform="translate(146.606 260.918)" fill="#9d9d9d" opacity="0.2"/>
      </g>
    </g>
    <g id="Group_782" data-name="Group 782" transform="translate(-470.242 -932.989)">
      <g id="Group_781" data-name="Group 781" transform="translate(521.412 1202.347)">
        <path id="Path_1138" data-name="Path 1138" d="M761.934,1379.636s-4.547,2.212-5.383,4.752c-.671,2.038-5.7,2.3-6.195,6.31a4.6,4.6,0,0,1-3.85,4.043c-5.134.787-13.047,3.453-14.313,12.368-.966,6.8,2.5,9.385,6.143,10.278a5.156,5.156,0,0,1,3.91,5.956c-.519,2.589.255,5.582,4.74,7.949,10.052,5.3,20.09-12.566,20.09-12.566l2.057-31.2Z" transform="translate(-709.195 -1360.415)" fill="#202336"/>
        <path id="Path_1139" data-name="Path 1139" d="M1151.024,1311.412s-20.07,31.745-43.935,37.876c0,0,4.65,13.245,8.24,14.76,0,0,29.361-24.5,36.906-48.126Z" transform="translate(-1043.59 -1299.587)" fill="url(#linear-gradient)"/>
        <path id="Path_1140" data-name="Path 1140" d="M532.834,3167.289l-.65,5.347a2.209,2.209,0,0,1-1.937,1.933,34.189,34.189,0,0,1-7.156.112,1.892,1.892,0,0,1-1.589-2.453c.656-2.064,1.857-5.163,3.587-6.987h5.932A1.828,1.828,0,0,1,532.834,3167.289Z" transform="translate(-521.412 -2952.425)"/>
        <path id="Path_1141" data-name="Path 1141" d="M961.156,2606.373l1,5.89s-3.353,33.961-3.949,47.545a10.646,10.646,0,0,0,1.575,6.05l5.83,9.467-14.817-8.743-.295-1.808,2.426-3.334-3.177-38.045a11.669,11.669,0,0,1,1.328-6.456l3.065-5.758Z" transform="translate(-903.274 -2454.149)" fill="url(#linear-gradient-2)"/>
        <path id="Path_1142" data-name="Path 1142" d="M963.512,3139.4h-4.728a2.846,2.846,0,0,1-2.26-1.108c-1.474-1.915-4.528-5.652-5.988-5.749-1.966-.132-1.714,6.857-1.714,6.857h-1.1l-1.4-8.685a5.141,5.141,0,0,1,2.7-5.374s.449,3.323,2.886,4.793,9.916,6.734,9.916,6.734a6.764,6.764,0,0,1,1.922.051A1.251,1.251,0,0,1,963.512,3139.4Z" transform="translate(-900.196 -2916.85)"/>
        <path id="Path_1143" data-name="Path 1143" d="M576.082,2612.046s-19.642,37.258-22.764,45.765a81.717,81.717,0,0,0-4.258,16.275c-.065,1.05-1.371,2.057-4.972,2.057a3.454,3.454,0,0,1-3.213-1.466,2.1,2.1,0,0,1-.079-2.033c1.136-2.3,4.742-9.647,6.077-12.981,1.594-3.979,5.024-22.012,6.9-28.282s4.007-13.071,12.2-19.336C565.975,2612.046,571.6,2606.539,576.082,2612.046Z" transform="translate(-538.494 -2457.025)" fill="url(#linear-gradient-3)"/>
        <path id="Path_1144" data-name="Path 1144" d="M918.663,1699.65c5.067-21.47-7.769-33.613-7.769-33.613,8.1-7.774,22.855-11.312,22.855-11.312s14.081,10.294,12.41,18.352c-.979,4.723-9.9,28.287-9.9,28.287A19.6,19.6,0,0,1,918.663,1699.65Z" transform="translate(-868.667 -1605.679)" fill="#6770a7"/>
        <path id="Path_1145" data-name="Path 1145" d="M781.036,2079.71c2.062-6.212,11.234-10.629,11.234-10.629a19.594,19.594,0,0,0,17.6,1.714,35.3,35.3,0,0,1,.573,13.639c-1.276,6.569-9.285,48.789-9.285,48.789-12.619,2.557-32.026-2.572-32.026-2.572C777.169,2116.381,778.974,2085.922,781.036,2079.71Z" transform="translate(-742.273 -1975.11)" fill="#172f5b"/>
        <path id="Path_1146" data-name="Path 1146" d="M1002.39,1509.357l-4.119,18.5c-.394,1.63,1.091,1.363,2.739,1.052,2.7-.509,6.176-1.557,7.339-3.656a1.994,1.994,0,0,0,.211-.7l1.77-12.831a2.305,2.305,0,0,0-1.349-2.422l-3.415-1.514A2.305,2.305,0,0,0,1002.39,1509.357Z" transform="translate(-946.513 -1474.498)" fill="url(#linear-gradient-4)"/>
        <g id="Group_778" data-name="Group 778" transform="translate(47.72 10.858)">
          <path id="Path_1147" data-name="Path 1147" d="M1021.207,1362.868s4.386,2.969,6.27,10.529-1.178,10.272-4.317,10.105-7.691-1.137-11.634-6.56S1015.461,1359.24,1021.207,1362.868Z" transform="translate(-1005.16 -1355.735)" fill="url(#linear-gradient-5)"/>
          <path id="Path_1148" data-name="Path 1148" d="M971.9,1320.655s-1.607-10.833,7.387-9.176l1.819,1.893s4.4-4.958-.469-8.705-11.632-2.788-15.372,4.035-5.1,11.617-1.963,15.856,5.493.6,5.493.6-1.438-3.669-.245-5.244,2.732.916,2.732.916Z" transform="translate(-961.557 -1302.497)" fill="#202336"/>
          <path id="Path_1149" data-name="Path 1149" d="M1007.321,1443.442s-.793-5.573-3.64-3.98,1.026,5.206,2.578,6.436Z" transform="translate(-998.208 -1424.357)" fill="url(#linear-gradient-6)"/>
        </g>
        <g id="Group_779" data-name="Group 779" transform="translate(104.147)">
          <path id="Path_1150" data-name="Path 1150" d="M1485.151,1220.707c.061.655-2.374,1.107-3.149-1.684.213-1.212.592-6.52,1.521-7.344,4.949-4.392,13.775-9.332,13.775-9.332a1.806,1.806,0,0,1-.308,2.5l-4.406,2.973a17.813,17.813,0,0,1,1.206,4.606,5.158,5.158,0,0,1-1.3,3.6c-.877,1-2.057,2.3-3.121,3.277A5.094,5.094,0,0,1,1485.151,1220.707Z" transform="translate(-1482.002 -1202.347)" fill="url(#linear-gradient-7)"/>
          <path id="Path_1151" data-name="Path 1151" d="M1509.542,1277.177l-.673-.277c.089-.218,2.2-5.355,3.226-6.424a1.548,1.548,0,0,0,.559-1.032.736.736,0,0,0-.226-.453l-3.565,1.906-1.575,2.465-.614-.392,1.677-2.626,4.176-2.233.188.154a1.582,1.582,0,0,1,.666,1.134,2.165,2.165,0,0,1-.759,1.582C1511.851,1271.785,1510.137,1275.726,1509.542,1277.177Z" transform="translate(-1503.999 -1260.981)" fill="url(#linear-gradient-8)"/>
        </g>
        <g id="Group_780" data-name="Group 780" transform="translate(53.022 72.237)">
          <path id="Path_1152" data-name="Path 1152" d="M1011.638,2146.434l.064,0,27.668-.04a1.475,1.475,0,0,0,1.237-1.631c0-.9-.558-1.645-1.24-1.628l-27.668.04a1.476,1.476,0,0,0-1.237,1.631A1.5,1.5,0,0,0,1011.638,2146.434Z" transform="translate(-1010.462 -2113.374)" fill="#5974b5"/>
          <path id="Path_1153" data-name="Path 1153" d="M1245.813,1868.623H1222.77c-1.7,0-3.247,1.291-3.972,3.314l-10.652,29.727h28.635a2.791,2.791,0,0,0,2.482-2.222l8.26-27.507C1248,1870.345,1247.111,1868.623,1245.813,1868.623Z" transform="translate(-1192.032 -1868.623)" fill="#5974b5"/>
          <path id="Path_1155" data-name="Path 1155" d="M3.975.022C6.07-.136,7.688.573,7.59,1.607s-1.876,2-3.971,2.159S-.094,3.215,0,2.181,1.88.181,3.975.022Z" transform="translate(36.287 18.987) rotate(-71.758)" fill="#fff"/>
        </g>
        <path id="Path_1154" data-name="Path 1154" d="M835.772,1759.466c-5.021,5.067-11.392,27.526-8.231,31.278,2.783,4.367,12.259,10.312,21.283,10.32h13.313c-5.594-5.944-9.446-7.452-14.034-3.3-3.64-1.555-8.36-7.581-11.511-10.271a3.359,3.359,0,0,1-.7-4.259c2.5-4.237,5.641-8.593,6.64-12.812C842.744,1765.482,839.085,1759.823,835.772,1759.466Z" transform="translate(-793.597 -1699.063)" fill="url(#linear-gradient-9)"/>
      </g>
    </g>
  </g>
</svg>
